<svg width="44" height="44" viewBox="0 0 44 44" fill="none" xmlns="http://www.w3.org/2000/svg">
<g clip-path="url(#clip0_50_97)">
<path d="M22 44C16.1652 44 10.5694 41.6821 6.44364 37.5563C2.31784 33.4305 -5.03139e-06 27.8348 -4.77635e-06 22C-4.5213e-06 16.1652 2.31784 10.5694 6.44365 6.44365C10.5694 2.31785 16.1652 -1.2167e-06 22 -9.61651e-07C27.8348 -7.06605e-07 33.4305 2.31785 37.5563 6.44365C41.6821 10.5695 44 16.1652 44 22C44 27.8348 41.6821 33.4305 37.5563 37.5563C33.4305 41.6821 27.8348 44 22 44ZM31.625 23.375C31.9897 23.375 32.3394 23.2301 32.5973 22.9723C32.8551 22.7144 33 22.3647 33 22C33 21.6353 32.8551 21.2856 32.5973 21.0277C32.3394 20.7699 31.9897 20.625 31.625 20.625L15.6942 20.625L21.5985 14.7235C21.8567 14.4653 22.0017 14.1151 22.0017 13.75C22.0017 13.3849 21.8567 13.0347 21.5985 12.7765C21.3403 12.5183 20.9901 12.3733 20.625 12.3733C20.2599 12.3733 19.9097 12.5183 19.6515 12.7765L11.4015 21.0265C11.2734 21.1542 11.1719 21.306 11.1025 21.473C11.0332 21.6401 10.9975 21.8191 10.9975 22C10.9975 22.1809 11.0332 22.3599 11.1025 22.527C11.1719 22.694 11.2734 22.8458 11.4015 22.9735L19.6515 31.2235C19.9097 31.4817 20.2599 31.6267 20.625 31.6267C20.9901 31.6267 21.3403 31.4817 21.5985 31.2235C21.8567 30.9653 22.0017 30.6151 22.0017 30.25C22.0017 29.8849 21.8567 29.5347 21.5985 29.2765L15.6942 23.375L31.625 23.375Z" fill="#FBCD26"/>
</g>
<defs>
<clipPath id="clip0_50_97">
<rect width="44" height="44" fill="white" transform="translate(44) rotate(90)"/>
</clipPath>
</defs>
</svg>
