<svg width="52" height="51" viewBox="0 0 52 51" fill="none" xmlns="http://www.w3.org/2000/svg">
<path d="M25.8926 17.5205C21.2824 17.5205 17.5201 21.2828 17.5201 25.8931C17.5201 30.5033 21.2824 34.2656 25.8926 34.2656C30.5029 34.2656 34.2652 30.5033 34.2652 25.8931C34.2652 21.2828 30.5029 17.5205 25.8926 17.5205ZM51.004 25.8931C51.004 22.426 51.0354 18.9903 50.8407 15.5295C50.646 11.5096 49.729 7.94203 46.7895 5.00254C43.8437 2.05676 40.2824 1.14602 36.2625 0.951306C32.7954 0.756596 29.3597 0.788001 25.8989 0.788001C22.4318 0.788001 18.9961 0.756596 15.5353 0.951306C11.5155 1.14602 7.94789 2.06304 5.0084 5.00254C2.06262 7.94831 1.15188 11.5096 0.957166 15.5295C0.762455 18.9966 0.79386 22.4322 0.79386 25.8931C0.79386 29.3539 0.762455 32.7959 0.957166 36.2567C1.15188 40.2765 2.0689 43.8441 5.0084 46.7836C7.95417 49.7294 11.5155 50.6401 15.5353 50.8348C19.0024 51.0295 22.4381 50.9981 25.8989 50.9981C29.366 50.9981 32.8017 51.0295 36.2625 50.8348C40.2824 50.6401 43.85 49.7231 46.7895 46.7836C49.7352 43.8378 50.646 40.2765 50.8407 36.2567C51.0417 32.7959 51.004 29.3602 51.004 25.8931V25.8931ZM25.8926 38.7753C18.7637 38.7753 13.0104 33.022 13.0104 25.8931C13.0104 18.7642 18.7637 13.0108 25.8926 13.0108C33.0216 13.0108 38.7749 18.7642 38.7749 25.8931C38.7749 33.022 33.0216 38.7753 25.8926 38.7753ZM39.3025 15.4918C37.6381 15.4918 36.2939 14.1476 36.2939 12.4832C36.2939 10.8187 37.6381 9.47459 39.3025 9.47459C40.967 9.47459 42.3111 10.8187 42.3111 12.4832C42.3116 12.8784 42.2341 13.2699 42.0831 13.6351C41.9321 14.0003 41.7105 14.3322 41.431 14.6117C41.1516 14.8912 40.8197 15.1127 40.4545 15.2638C40.0892 15.4148 39.6978 15.4923 39.3025 15.4918V15.4918Z" fill="#1776B9"/>
</svg>
