<svg width="820" height="525" viewBox="0 0 820 525" fill="none" xmlns="http://www.w3.org/2000/svg">
<mask id="mask0_181_549" style="mask-type:alpha" maskUnits="userSpaceOnUse" x="0" y="0" width="302" height="371">
<circle cx="4.89838" cy="11.8486" r="4.36517" fill="#428FC6"/>
<circle cx="4.89838" cy="196.433" r="4.36517" fill="#428FC6"/>
<circle cx="4.89838" cy="57.9946" r="4.36517" fill="#428FC6"/>
<circle cx="4.89838" cy="242.579" r="4.36517" fill="#428FC6"/>
<circle cx="4.89838" cy="27.2304" r="4.36517" fill="#428FC6"/>
<circle cx="4.89838" cy="211.815" r="4.36517" fill="#428FC6"/>
<circle cx="4.89838" cy="73.3764" r="4.36517" fill="#428FC6"/>
<circle cx="4.89838" cy="257.961" r="4.36517" fill="#428FC6"/>
<circle cx="4.89838" cy="42.6122" r="4.36517" fill="#428FC6"/>
<circle cx="4.89838" cy="227.197" r="4.36517" fill="#428FC6"/>
<circle cx="4.89838" cy="88.7587" r="4.36517" fill="#428FC6"/>
<circle cx="4.89838" cy="273.343" r="4.36517" fill="#428FC6"/>
<circle cx="4.89838" cy="104.141" r="4.36517" fill="#428FC6"/>
<circle cx="4.89838" cy="288.725" r="4.36517" fill="#428FC6"/>
<circle cx="4.89838" cy="150.287" r="4.36517" fill="#428FC6"/>
<circle cx="4.89838" cy="334.872" r="4.36517" fill="#428FC6"/>
<circle cx="4.89838" cy="119.522" r="4.36517" fill="#428FC6"/>
<circle cx="4.89838" cy="304.107" r="4.36517" fill="#428FC6"/>
<circle cx="4.89838" cy="165.669" r="4.36517" fill="#428FC6"/>
<circle cx="4.89838" cy="350.254" r="4.36517" fill="#428FC6"/>
<circle cx="4.89838" cy="134.905" r="4.36517" fill="#428FC6"/>
<circle cx="4.89838" cy="319.489" r="4.36517" fill="#428FC6"/>
<circle cx="4.89838" cy="181.051" r="4.36517" fill="#428FC6"/>
<circle cx="4.89838" cy="365.635" r="4.36517" fill="#428FC6"/>
<circle cx="35.6625" cy="11.8486" r="4.36517" fill="#428FC6"/>
<circle cx="35.6623" cy="196.433" r="4.36517" fill="#428FC6"/>
<circle cx="35.6623" cy="57.9946" r="4.36517" fill="#428FC6"/>
<circle cx="35.6623" cy="242.579" r="4.36517" fill="#428FC6"/>
<circle cx="35.6623" cy="27.2304" r="4.36517" fill="#428FC6"/>
<circle cx="35.6623" cy="211.815" r="4.36517" fill="#428FC6"/>
<circle cx="35.6623" cy="73.3764" r="4.36517" fill="#428FC6"/>
<circle cx="35.6623" cy="257.961" r="4.36517" fill="#428FC6"/>
<circle cx="35.6623" cy="42.6122" r="4.36517" fill="#428FC6"/>
<circle cx="35.6623" cy="227.197" r="4.36517" fill="#428FC6"/>
<circle cx="35.6623" cy="88.7587" r="4.36517" fill="#428FC6"/>
<circle cx="35.6623" cy="273.343" r="4.36517" fill="#428FC6"/>
<circle cx="35.6623" cy="104.141" r="4.36517" fill="#428FC6"/>
<circle cx="35.6623" cy="288.725" r="4.36517" fill="#428FC6"/>
<circle cx="35.6623" cy="150.287" r="4.36517" fill="#428FC6"/>
<circle cx="35.6623" cy="334.872" r="4.36517" fill="#428FC6"/>
<circle cx="35.6623" cy="119.522" r="4.36517" fill="#428FC6"/>
<circle cx="35.6623" cy="304.107" r="4.36517" fill="#428FC6"/>
<circle cx="35.6623" cy="165.669" r="4.36517" fill="#428FC6"/>
<circle cx="35.6623" cy="350.254" r="4.36517" fill="#428FC6"/>
<circle cx="35.6623" cy="134.905" r="4.36517" fill="#428FC6"/>
<circle cx="35.6623" cy="319.489" r="4.36517" fill="#428FC6"/>
<circle cx="35.6623" cy="181.051" r="4.36517" fill="#428FC6"/>
<circle cx="35.6623" cy="365.635" r="4.36517" fill="#428FC6"/>
<circle cx="66.4267" cy="11.8486" r="4.36517" fill="#428FC6"/>
<circle cx="66.4267" cy="196.433" r="4.36517" fill="#428FC6"/>
<circle cx="66.4267" cy="57.9946" r="4.36517" fill="#428FC6"/>
<circle cx="66.4267" cy="242.579" r="4.36517" fill="#428FC6"/>
<circle cx="66.4267" cy="27.2304" r="4.36517" fill="#428FC6"/>
<circle cx="66.4267" cy="211.815" r="4.36517" fill="#428FC6"/>
<circle cx="66.4267" cy="73.3764" r="4.36517" fill="#428FC6"/>
<circle cx="66.4267" cy="257.961" r="4.36517" fill="#428FC6"/>
<circle cx="66.4267" cy="42.6122" r="4.36517" fill="#428FC6"/>
<circle cx="66.4267" cy="227.197" r="4.36517" fill="#428FC6"/>
<circle cx="66.4267" cy="88.7587" r="4.36517" fill="#428FC6"/>
<circle cx="66.4267" cy="273.343" r="4.36517" fill="#428FC6"/>
<circle cx="66.4267" cy="104.141" r="4.36517" fill="#428FC6"/>
<circle cx="66.4267" cy="288.725" r="4.36517" fill="#428FC6"/>
<circle cx="66.4267" cy="150.287" r="4.36517" fill="#428FC6"/>
<circle cx="66.4267" cy="334.872" r="4.36517" fill="#428FC6"/>
<circle cx="66.4267" cy="119.522" r="4.36517" fill="#428FC6"/>
<circle cx="66.4267" cy="304.107" r="4.36517" fill="#428FC6"/>
<circle cx="66.4267" cy="165.669" r="4.36517" fill="#428FC6"/>
<circle cx="66.4267" cy="350.254" r="4.36517" fill="#428FC6"/>
<circle cx="66.4267" cy="134.905" r="4.36517" fill="#428FC6"/>
<circle cx="66.4267" cy="319.489" r="4.36517" fill="#428FC6"/>
<circle cx="66.4267" cy="181.051" r="4.36517" fill="#428FC6"/>
<circle cx="66.4267" cy="365.635" r="4.36517" fill="#428FC6"/>
<circle cx="97.1906" cy="11.8486" r="4.36517" fill="#428FC6"/>
<circle cx="97.1906" cy="196.433" r="4.36517" fill="#428FC6"/>
<circle cx="97.1906" cy="57.9946" r="4.36517" fill="#428FC6"/>
<circle cx="97.1906" cy="242.579" r="4.36517" fill="#428FC6"/>
<circle cx="97.1906" cy="27.2304" r="4.36517" fill="#428FC6"/>
<circle cx="97.1906" cy="211.815" r="4.36517" fill="#428FC6"/>
<circle cx="97.1906" cy="73.3764" r="4.36517" fill="#428FC6"/>
<circle cx="97.1906" cy="257.961" r="4.36517" fill="#428FC6"/>
<circle cx="97.1906" cy="42.6122" r="4.36517" fill="#428FC6"/>
<circle cx="97.1906" cy="227.197" r="4.36517" fill="#428FC6"/>
<circle cx="97.1906" cy="88.7587" r="4.36517" fill="#428FC6"/>
<circle cx="97.1906" cy="273.343" r="4.36517" fill="#428FC6"/>
<circle cx="97.1906" cy="104.141" r="4.36517" fill="#428FC6"/>
<circle cx="97.1906" cy="288.725" r="4.36517" fill="#428FC6"/>
<circle cx="97.1906" cy="150.287" r="4.36517" fill="#428FC6"/>
<circle cx="97.1906" cy="334.872" r="4.36517" fill="#428FC6"/>
<circle cx="97.1906" cy="119.522" r="4.36517" fill="#428FC6"/>
<circle cx="97.1906" cy="304.107" r="4.36517" fill="#428FC6"/>
<circle cx="97.1906" cy="165.669" r="4.36517" fill="#428FC6"/>
<circle cx="97.1906" cy="350.254" r="4.36517" fill="#428FC6"/>
<circle cx="97.1906" cy="134.905" r="4.36517" fill="#428FC6"/>
<circle cx="97.1906" cy="319.489" r="4.36517" fill="#428FC6"/>
<circle cx="97.1906" cy="181.051" r="4.36517" fill="#428FC6"/>
<circle cx="97.1906" cy="365.635" r="4.36517" fill="#428FC6"/>
<circle cx="127.955" cy="11.8486" r="4.36517" fill="#428FC6"/>
<circle cx="127.955" cy="196.433" r="4.36517" fill="#428FC6"/>
<circle cx="127.955" cy="57.9946" r="4.36517" fill="#428FC6"/>
<circle cx="127.955" cy="242.579" r="4.36517" fill="#428FC6"/>
<circle cx="127.955" cy="27.2304" r="4.36517" fill="#428FC6"/>
<circle cx="127.955" cy="211.815" r="4.36517" fill="#428FC6"/>
<circle cx="127.955" cy="73.3764" r="4.36517" fill="#428FC6"/>
<circle cx="127.955" cy="257.961" r="4.36517" fill="#428FC6"/>
<circle cx="127.955" cy="42.6122" r="4.36517" fill="#428FC6"/>
<circle cx="127.955" cy="227.197" r="4.36517" fill="#428FC6"/>
<circle cx="127.955" cy="88.7587" r="4.36517" fill="#428FC6"/>
<circle cx="127.955" cy="273.343" r="4.36517" fill="#428FC6"/>
<circle cx="127.955" cy="104.141" r="4.36517" fill="#428FC6"/>
<circle cx="127.955" cy="288.725" r="4.36517" fill="#428FC6"/>
<circle cx="127.955" cy="150.287" r="4.36517" fill="#428FC6"/>
<circle cx="127.955" cy="334.872" r="4.36517" fill="#428FC6"/>
<circle cx="127.955" cy="119.522" r="4.36517" fill="#428FC6"/>
<circle cx="127.955" cy="304.107" r="4.36517" fill="#428FC6"/>
<circle cx="127.955" cy="165.669" r="4.36517" fill="#428FC6"/>
<circle cx="127.955" cy="350.254" r="4.36517" fill="#428FC6"/>
<circle cx="127.955" cy="134.905" r="4.36517" fill="#428FC6"/>
<circle cx="127.955" cy="319.489" r="4.36517" fill="#428FC6"/>
<circle cx="127.955" cy="181.051" r="4.36517" fill="#428FC6"/>
<circle cx="127.955" cy="365.635" r="4.36517" fill="#428FC6"/>
<circle cx="158.719" cy="11.8486" r="4.36517" fill="#428FC6"/>
<circle cx="158.719" cy="196.433" r="4.36517" fill="#428FC6"/>
<circle cx="158.719" cy="57.9946" r="4.36517" fill="#428FC6"/>
<circle cx="158.719" cy="242.579" r="4.36517" fill="#428FC6"/>
<circle cx="158.719" cy="27.2304" r="4.36517" fill="#428FC6"/>
<circle cx="158.719" cy="211.815" r="4.36517" fill="#428FC6"/>
<circle cx="158.719" cy="73.3764" r="4.36517" fill="#428FC6"/>
<circle cx="158.719" cy="257.961" r="4.36517" fill="#428FC6"/>
<circle cx="158.719" cy="42.6122" r="4.36517" fill="#428FC6"/>
<circle cx="158.719" cy="227.197" r="4.36517" fill="#428FC6"/>
<circle cx="158.719" cy="88.7587" r="4.36517" fill="#428FC6"/>
<circle cx="158.719" cy="273.343" r="4.36517" fill="#428FC6"/>
<circle cx="158.719" cy="104.141" r="4.36517" fill="#428FC6"/>
<circle cx="158.719" cy="288.725" r="4.36517" fill="#428FC6"/>
<circle cx="158.719" cy="150.287" r="4.36517" fill="#428FC6"/>
<circle cx="158.719" cy="334.872" r="4.36517" fill="#428FC6"/>
<circle cx="158.719" cy="119.522" r="4.36517" fill="#428FC6"/>
<circle cx="158.719" cy="304.107" r="4.36517" fill="#428FC6"/>
<circle cx="158.719" cy="165.669" r="4.36517" fill="#428FC6"/>
<circle cx="158.719" cy="350.254" r="4.36517" fill="#428FC6"/>
<circle cx="158.719" cy="134.905" r="4.36517" fill="#428FC6"/>
<circle cx="158.719" cy="319.489" r="4.36517" fill="#428FC6"/>
<circle cx="158.719" cy="181.051" r="4.36517" fill="#428FC6"/>
<circle cx="158.719" cy="365.635" r="4.36517" fill="#428FC6"/>
<circle cx="189.483" cy="11.8486" r="4.36517" fill="#428FC6"/>
<circle cx="189.483" cy="196.433" r="4.36517" fill="#428FC6"/>
<circle cx="189.483" cy="57.9946" r="4.36517" fill="#428FC6"/>
<circle cx="189.483" cy="242.579" r="4.36517" fill="#428FC6"/>
<circle cx="189.483" cy="27.2304" r="4.36517" fill="#428FC6"/>
<circle cx="189.483" cy="211.815" r="4.36517" fill="#428FC6"/>
<circle cx="189.483" cy="73.3764" r="4.36517" fill="#428FC6"/>
<circle cx="189.483" cy="257.961" r="4.36517" fill="#428FC6"/>
<circle cx="189.483" cy="42.6122" r="4.36517" fill="#428FC6"/>
<circle cx="189.483" cy="227.197" r="4.36517" fill="#428FC6"/>
<circle cx="189.483" cy="88.7587" r="4.36517" fill="#428FC6"/>
<circle cx="189.483" cy="273.343" r="4.36517" fill="#428FC6"/>
<circle cx="189.483" cy="104.141" r="4.36517" fill="#428FC6"/>
<circle cx="189.483" cy="288.725" r="4.36517" fill="#428FC6"/>
<circle cx="189.483" cy="150.287" r="4.36517" fill="#428FC6"/>
<circle cx="189.483" cy="334.872" r="4.36517" fill="#428FC6"/>
<circle cx="189.483" cy="119.522" r="4.36517" fill="#428FC6"/>
<circle cx="189.483" cy="304.107" r="4.36517" fill="#428FC6"/>
<circle cx="189.483" cy="165.669" r="4.36517" fill="#428FC6"/>
<circle cx="189.483" cy="350.254" r="4.36517" fill="#428FC6"/>
<circle cx="189.483" cy="134.905" r="4.36517" fill="#428FC6"/>
<circle cx="189.483" cy="319.489" r="4.36517" fill="#428FC6"/>
<circle cx="189.483" cy="181.051" r="4.36517" fill="#428FC6"/>
<circle cx="189.483" cy="365.635" r="4.36517" fill="#428FC6"/>
<circle cx="220.248" cy="11.8486" r="4.36517" fill="#428FC6"/>
<circle cx="220.247" cy="196.433" r="4.36517" fill="#428FC6"/>
<circle cx="220.247" cy="57.9946" r="4.36517" fill="#428FC6"/>
<circle cx="220.247" cy="242.579" r="4.36517" fill="#428FC6"/>
<circle cx="220.247" cy="27.2304" r="4.36517" fill="#428FC6"/>
<circle cx="220.247" cy="211.815" r="4.36517" fill="#428FC6"/>
<circle cx="220.247" cy="73.3764" r="4.36517" fill="#428FC6"/>
<circle cx="220.247" cy="257.961" r="4.36517" fill="#428FC6"/>
<circle cx="220.247" cy="42.6122" r="4.36517" fill="#428FC6"/>
<circle cx="220.247" cy="227.197" r="4.36517" fill="#428FC6"/>
<circle cx="220.247" cy="88.7587" r="4.36517" fill="#428FC6"/>
<circle cx="220.247" cy="273.343" r="4.36517" fill="#428FC6"/>
<circle cx="220.247" cy="104.141" r="4.36517" fill="#428FC6"/>
<circle cx="220.247" cy="288.725" r="4.36517" fill="#428FC6"/>
<circle cx="220.247" cy="150.287" r="4.36517" fill="#428FC6"/>
<circle cx="220.247" cy="334.872" r="4.36517" fill="#428FC6"/>
<circle cx="220.247" cy="119.522" r="4.36517" fill="#428FC6"/>
<circle cx="220.247" cy="304.107" r="4.36517" fill="#428FC6"/>
<circle cx="220.247" cy="165.669" r="4.36517" fill="#428FC6"/>
<circle cx="220.247" cy="350.254" r="4.36517" fill="#428FC6"/>
<circle cx="220.247" cy="134.905" r="4.36517" fill="#428FC6"/>
<circle cx="220.247" cy="319.489" r="4.36517" fill="#428FC6"/>
<circle cx="220.247" cy="181.051" r="4.36517" fill="#428FC6"/>
<circle cx="220.247" cy="365.635" r="4.36517" fill="#428FC6"/>
<circle cx="251.011" cy="11.8486" r="4.36517" fill="#428FC6"/>
<circle cx="251.011" cy="196.433" r="4.36517" fill="#428FC6"/>
<circle cx="251.011" cy="57.9946" r="4.36517" fill="#428FC6"/>
<circle cx="251.011" cy="242.579" r="4.36517" fill="#428FC6"/>
<circle cx="251.011" cy="27.2304" r="4.36517" fill="#428FC6"/>
<circle cx="251.011" cy="211.815" r="4.36517" fill="#428FC6"/>
<circle cx="251.011" cy="73.3764" r="4.36517" fill="#428FC6"/>
<circle cx="251.011" cy="257.961" r="4.36517" fill="#428FC6"/>
<circle cx="251.011" cy="42.6122" r="4.36517" fill="#428FC6"/>
<circle cx="251.011" cy="227.197" r="4.36517" fill="#428FC6"/>
<circle cx="251.011" cy="88.7587" r="4.36517" fill="#428FC6"/>
<circle cx="251.011" cy="273.343" r="4.36517" fill="#428FC6"/>
<circle cx="251.011" cy="104.141" r="4.36517" fill="#428FC6"/>
<circle cx="251.011" cy="288.725" r="4.36517" fill="#428FC6"/>
<circle cx="251.011" cy="150.287" r="4.36517" fill="#428FC6"/>
<circle cx="251.011" cy="334.872" r="4.36517" fill="#428FC6"/>
<circle cx="251.011" cy="119.522" r="4.36517" fill="#428FC6"/>
<circle cx="251.011" cy="304.107" r="4.36517" fill="#428FC6"/>
<circle cx="251.011" cy="165.669" r="4.36517" fill="#428FC6"/>
<circle cx="251.011" cy="350.254" r="4.36517" fill="#428FC6"/>
<circle cx="251.011" cy="134.905" r="4.36517" fill="#428FC6"/>
<circle cx="251.011" cy="319.489" r="4.36517" fill="#428FC6"/>
<circle cx="251.011" cy="181.051" r="4.36517" fill="#428FC6"/>
<circle cx="251.011" cy="365.635" r="4.36517" fill="#428FC6"/>
<circle cx="281.775" cy="11.8486" r="4.36517" fill="#428FC6"/>
<circle cx="281.775" cy="196.433" r="4.36517" fill="#428FC6"/>
<circle cx="281.775" cy="57.9946" r="4.36517" fill="#428FC6"/>
<circle cx="281.775" cy="242.579" r="4.36517" fill="#428FC6"/>
<circle cx="281.775" cy="27.2304" r="4.36517" fill="#428FC6"/>
<circle cx="281.775" cy="211.815" r="4.36517" fill="#428FC6"/>
<circle cx="281.775" cy="73.3764" r="4.36517" fill="#428FC6"/>
<circle cx="281.775" cy="257.961" r="4.36517" fill="#428FC6"/>
<circle cx="281.775" cy="42.6122" r="4.36517" fill="#428FC6"/>
<circle cx="281.775" cy="227.197" r="4.36517" fill="#428FC6"/>
<circle cx="281.775" cy="88.7587" r="4.36517" fill="#428FC6"/>
<circle cx="281.775" cy="273.343" r="4.36517" fill="#428FC6"/>
<circle cx="281.775" cy="104.141" r="4.36517" fill="#428FC6"/>
<circle cx="281.775" cy="288.725" r="4.36517" fill="#428FC6"/>
<circle cx="281.775" cy="150.287" r="4.36517" fill="#428FC6"/>
<circle cx="281.775" cy="334.872" r="4.36517" fill="#428FC6"/>
<circle cx="281.775" cy="119.522" r="4.36517" fill="#428FC6"/>
<circle cx="281.775" cy="304.107" r="4.36517" fill="#428FC6"/>
<circle cx="281.775" cy="165.669" r="4.36517" fill="#428FC6"/>
<circle cx="281.775" cy="350.254" r="4.36517" fill="#428FC6"/>
<circle cx="281.775" cy="134.905" r="4.36517" fill="#428FC6"/>
<circle cx="281.775" cy="319.489" r="4.36517" fill="#428FC6"/>
<circle cx="281.775" cy="181.051" r="4.36517" fill="#428FC6"/>
<circle cx="281.775" cy="365.635" r="4.36517" fill="#428FC6"/>
<circle cx="51.0446" cy="4.36517" r="4.36517" fill="#428FC6"/>
<circle cx="51.0444" cy="188.95" r="4.36517" fill="#428FC6"/>
<circle cx="51.0444" cy="50.5117" r="4.36517" fill="#428FC6"/>
<circle cx="51.0444" cy="235.096" r="4.36517" fill="#428FC6"/>
<circle cx="51.0444" cy="19.7475" r="4.36517" fill="#428FC6"/>
<circle cx="51.0444" cy="204.332" r="4.36517" fill="#428FC6"/>
<circle cx="51.0444" cy="65.8935" r="4.36517" fill="#428FC6"/>
<circle cx="51.0444" cy="250.478" r="4.36517" fill="#428FC6"/>
<circle cx="51.0444" cy="35.1298" r="4.36517" fill="#428FC6"/>
<circle cx="51.0444" cy="219.714" r="4.36517" fill="#428FC6"/>
<circle cx="51.0444" cy="81.2753" r="4.36517" fill="#428FC6"/>
<circle cx="51.0444" cy="265.86" r="4.36517" fill="#428FC6"/>
<circle cx="51.0444" cy="96.6577" r="4.36517" fill="#428FC6"/>
<circle cx="51.0444" cy="281.242" r="4.36517" fill="#428FC6"/>
<circle cx="51.0444" cy="142.804" r="4.36517" fill="#428FC6"/>
<circle cx="51.0444" cy="327.388" r="4.36517" fill="#428FC6"/>
<circle cx="51.0444" cy="112.04" r="4.36517" fill="#428FC6"/>
<circle cx="51.0444" cy="296.624" r="4.36517" fill="#428FC6"/>
<circle cx="51.0444" cy="158.185" r="4.36517" fill="#428FC6"/>
<circle cx="51.0444" cy="342.77" r="4.36517" fill="#428FC6"/>
<circle cx="51.0444" cy="127.422" r="4.36517" fill="#428FC6"/>
<circle cx="51.0444" cy="312.007" r="4.36517" fill="#428FC6"/>
<circle cx="51.0444" cy="173.568" r="4.36517" fill="#428FC6"/>
<circle cx="51.0444" cy="358.152" r="4.36517" fill="#428FC6"/>
<circle cx="20.2805" cy="4.36517" r="4.36517" fill="#428FC6"/>
<circle cx="20.2805" cy="188.95" r="4.36517" fill="#428FC6"/>
<circle cx="20.2805" cy="50.5117" r="4.36517" fill="#428FC6"/>
<circle cx="20.2805" cy="235.096" r="4.36517" fill="#428FC6"/>
<circle cx="20.2805" cy="19.7475" r="4.36517" fill="#428FC6"/>
<circle cx="20.2805" cy="204.332" r="4.36517" fill="#428FC6"/>
<circle cx="20.2805" cy="65.8935" r="4.36517" fill="#428FC6"/>
<circle cx="20.2805" cy="250.478" r="4.36517" fill="#428FC6"/>
<circle cx="20.2805" cy="35.1298" r="4.36517" fill="#428FC6"/>
<circle cx="20.2805" cy="219.714" r="4.36517" fill="#428FC6"/>
<circle cx="20.2805" cy="81.2753" r="4.36517" fill="#428FC6"/>
<circle cx="20.2805" cy="265.86" r="4.36517" fill="#428FC6"/>
<circle cx="20.2805" cy="96.6577" r="4.36517" fill="#428FC6"/>
<circle cx="20.2805" cy="281.242" r="4.36517" fill="#428FC6"/>
<circle cx="20.2805" cy="142.804" r="4.36517" fill="#428FC6"/>
<circle cx="20.2805" cy="327.388" r="4.36517" fill="#428FC6"/>
<circle cx="20.2805" cy="112.04" r="4.36517" fill="#428FC6"/>
<circle cx="20.2805" cy="296.624" r="4.36517" fill="#428FC6"/>
<circle cx="20.2805" cy="158.185" r="4.36517" fill="#428FC6"/>
<circle cx="20.2805" cy="342.77" r="4.36517" fill="#428FC6"/>
<circle cx="20.2805" cy="127.422" r="4.36517" fill="#428FC6"/>
<circle cx="20.2805" cy="312.007" r="4.36517" fill="#428FC6"/>
<circle cx="20.2805" cy="173.568" r="4.36517" fill="#428FC6"/>
<circle cx="20.2805" cy="358.152" r="4.36517" fill="#428FC6"/>
<circle cx="81.8088" cy="4.36517" r="4.36517" fill="#428FC6"/>
<circle cx="81.8085" cy="188.95" r="4.36517" fill="#428FC6"/>
<circle cx="81.8085" cy="50.5117" r="4.36517" fill="#428FC6"/>
<circle cx="81.8085" cy="235.096" r="4.36517" fill="#428FC6"/>
<circle cx="81.8085" cy="19.7475" r="4.36517" fill="#428FC6"/>
<circle cx="81.8085" cy="204.332" r="4.36517" fill="#428FC6"/>
<circle cx="81.8085" cy="65.8935" r="4.36517" fill="#428FC6"/>
<circle cx="81.8085" cy="250.478" r="4.36517" fill="#428FC6"/>
<circle cx="81.8085" cy="35.1298" r="4.36517" fill="#428FC6"/>
<circle cx="81.8085" cy="219.714" r="4.36517" fill="#428FC6"/>
<circle cx="81.8085" cy="81.2753" r="4.36517" fill="#428FC6"/>
<circle cx="81.8085" cy="265.86" r="4.36517" fill="#428FC6"/>
<circle cx="81.8085" cy="96.6577" r="4.36517" fill="#428FC6"/>
<circle cx="81.8085" cy="281.242" r="4.36517" fill="#428FC6"/>
<circle cx="81.8085" cy="142.804" r="4.36517" fill="#428FC6"/>
<circle cx="81.8085" cy="327.388" r="4.36517" fill="#428FC6"/>
<circle cx="81.8085" cy="112.04" r="4.36517" fill="#428FC6"/>
<circle cx="81.8085" cy="296.624" r="4.36517" fill="#428FC6"/>
<circle cx="81.8085" cy="158.185" r="4.36517" fill="#428FC6"/>
<circle cx="81.8085" cy="342.77" r="4.36517" fill="#428FC6"/>
<circle cx="81.8085" cy="127.422" r="4.36517" fill="#428FC6"/>
<circle cx="81.8085" cy="312.007" r="4.36517" fill="#428FC6"/>
<circle cx="81.8085" cy="173.568" r="4.36517" fill="#428FC6"/>
<circle cx="81.8085" cy="358.152" r="4.36517" fill="#428FC6"/>
<circle cx="112.573" cy="4.36517" r="4.36517" fill="#428FC6"/>
<circle cx="112.573" cy="188.95" r="4.36517" fill="#428FC6"/>
<circle cx="112.573" cy="50.5117" r="4.36517" fill="#428FC6"/>
<circle cx="112.573" cy="235.096" r="4.36517" fill="#428FC6"/>
<circle cx="112.573" cy="19.7475" r="4.36517" fill="#428FC6"/>
<circle cx="112.573" cy="204.332" r="4.36517" fill="#428FC6"/>
<circle cx="112.573" cy="65.8935" r="4.36517" fill="#428FC6"/>
<circle cx="112.573" cy="250.478" r="4.36517" fill="#428FC6"/>
<circle cx="112.573" cy="35.1298" r="4.36517" fill="#428FC6"/>
<circle cx="112.573" cy="219.714" r="4.36517" fill="#428FC6"/>
<circle cx="112.573" cy="81.2753" r="4.36517" fill="#428FC6"/>
<circle cx="112.573" cy="265.86" r="4.36517" fill="#428FC6"/>
<circle cx="112.573" cy="96.6577" r="4.36517" fill="#428FC6"/>
<circle cx="112.573" cy="281.242" r="4.36517" fill="#428FC6"/>
<circle cx="112.573" cy="142.804" r="4.36517" fill="#428FC6"/>
<circle cx="112.573" cy="327.388" r="4.36517" fill="#428FC6"/>
<circle cx="112.573" cy="112.04" r="4.36517" fill="#428FC6"/>
<circle cx="112.573" cy="296.624" r="4.36517" fill="#428FC6"/>
<circle cx="112.573" cy="158.185" r="4.36517" fill="#428FC6"/>
<circle cx="112.573" cy="342.77" r="4.36517" fill="#428FC6"/>
<circle cx="112.573" cy="127.422" r="4.36517" fill="#428FC6"/>
<circle cx="112.573" cy="312.007" r="4.36517" fill="#428FC6"/>
<circle cx="112.573" cy="173.568" r="4.36517" fill="#428FC6"/>
<circle cx="112.573" cy="358.152" r="4.36517" fill="#428FC6"/>
<circle cx="174.101" cy="4.36517" r="4.36517" fill="#428FC6"/>
<circle cx="174.101" cy="188.95" r="4.36517" fill="#428FC6"/>
<circle cx="174.101" cy="50.5117" r="4.36517" fill="#428FC6"/>
<circle cx="174.101" cy="235.096" r="4.36517" fill="#428FC6"/>
<circle cx="174.101" cy="19.7475" r="4.36517" fill="#428FC6"/>
<circle cx="174.101" cy="204.332" r="4.36517" fill="#428FC6"/>
<circle cx="174.101" cy="65.8935" r="4.36517" fill="#428FC6"/>
<circle cx="174.101" cy="250.478" r="4.36517" fill="#428FC6"/>
<circle cx="174.101" cy="35.1298" r="4.36517" fill="#428FC6"/>
<circle cx="174.101" cy="219.714" r="4.36517" fill="#428FC6"/>
<circle cx="174.101" cy="81.2753" r="4.36517" fill="#428FC6"/>
<circle cx="174.101" cy="265.86" r="4.36517" fill="#428FC6"/>
<circle cx="174.101" cy="96.6577" r="4.36517" fill="#428FC6"/>
<circle cx="174.101" cy="281.242" r="4.36517" fill="#428FC6"/>
<circle cx="174.101" cy="142.804" r="4.36517" fill="#428FC6"/>
<circle cx="174.101" cy="327.388" r="4.36517" fill="#428FC6"/>
<circle cx="174.101" cy="112.04" r="4.36517" fill="#428FC6"/>
<circle cx="174.101" cy="296.624" r="4.36517" fill="#428FC6"/>
<circle cx="174.101" cy="158.185" r="4.36517" fill="#428FC6"/>
<circle cx="174.101" cy="342.77" r="4.36517" fill="#428FC6"/>
<circle cx="174.101" cy="127.422" r="4.36517" fill="#428FC6"/>
<circle cx="174.101" cy="312.007" r="4.36517" fill="#428FC6"/>
<circle cx="174.101" cy="173.568" r="4.36517" fill="#428FC6"/>
<circle cx="174.101" cy="358.152" r="4.36517" fill="#428FC6"/>
<circle cx="204.865" cy="4.36517" r="4.36517" fill="#428FC6"/>
<circle cx="204.866" cy="188.95" r="4.36517" fill="#428FC6"/>
<circle cx="204.866" cy="50.5117" r="4.36517" fill="#428FC6"/>
<circle cx="204.866" cy="235.096" r="4.36517" fill="#428FC6"/>
<circle cx="204.866" cy="19.7475" r="4.36517" fill="#428FC6"/>
<circle cx="204.866" cy="204.332" r="4.36517" fill="#428FC6"/>
<circle cx="204.866" cy="65.8935" r="4.36517" fill="#428FC6"/>
<circle cx="204.866" cy="250.478" r="4.36517" fill="#428FC6"/>
<circle cx="204.866" cy="35.1298" r="4.36517" fill="#428FC6"/>
<circle cx="204.866" cy="219.714" r="4.36517" fill="#428FC6"/>
<circle cx="204.866" cy="81.2753" r="4.36517" fill="#428FC6"/>
<circle cx="204.866" cy="265.86" r="4.36517" fill="#428FC6"/>
<circle cx="204.866" cy="96.6577" r="4.36517" fill="#428FC6"/>
<circle cx="204.866" cy="281.242" r="4.36517" fill="#428FC6"/>
<circle cx="204.866" cy="142.804" r="4.36517" fill="#428FC6"/>
<circle cx="204.866" cy="327.388" r="4.36517" fill="#428FC6"/>
<circle cx="204.866" cy="112.04" r="4.36517" fill="#428FC6"/>
<circle cx="204.866" cy="296.624" r="4.36517" fill="#428FC6"/>
<circle cx="204.866" cy="158.185" r="4.36517" fill="#428FC6"/>
<circle cx="204.866" cy="342.77" r="4.36517" fill="#428FC6"/>
<circle cx="204.866" cy="127.422" r="4.36517" fill="#428FC6"/>
<circle cx="204.866" cy="312.006" r="4.36517" fill="#428FC6"/>
<circle cx="204.866" cy="173.568" r="4.36517" fill="#428FC6"/>
<circle cx="204.866" cy="358.152" r="4.36517" fill="#428FC6"/>
<circle cx="143.337" cy="4.36517" r="4.36517" fill="#428FC6"/>
<circle cx="143.337" cy="188.95" r="4.36517" fill="#428FC6"/>
<circle cx="143.337" cy="50.5117" r="4.36517" fill="#428FC6"/>
<circle cx="143.337" cy="235.096" r="4.36517" fill="#428FC6"/>
<circle cx="143.337" cy="19.7475" r="4.36517" fill="#428FC6"/>
<circle cx="143.337" cy="204.332" r="4.36517" fill="#428FC6"/>
<circle cx="143.337" cy="65.8935" r="4.36517" fill="#428FC6"/>
<circle cx="143.337" cy="250.478" r="4.36517" fill="#428FC6"/>
<circle cx="143.337" cy="35.1298" r="4.36517" fill="#428FC6"/>
<circle cx="143.337" cy="219.714" r="4.36517" fill="#428FC6"/>
<circle cx="143.337" cy="81.2753" r="4.36517" fill="#428FC6"/>
<circle cx="143.337" cy="265.86" r="4.36517" fill="#428FC6"/>
<circle cx="143.337" cy="96.6577" r="4.36517" fill="#428FC6"/>
<circle cx="143.337" cy="281.242" r="4.36517" fill="#428FC6"/>
<circle cx="143.337" cy="142.804" r="4.36517" fill="#428FC6"/>
<circle cx="143.337" cy="327.388" r="4.36517" fill="#428FC6"/>
<circle cx="143.337" cy="112.04" r="4.36517" fill="#428FC6"/>
<circle cx="143.337" cy="296.624" r="4.36517" fill="#428FC6"/>
<circle cx="143.337" cy="158.185" r="4.36517" fill="#428FC6"/>
<circle cx="143.337" cy="342.77" r="4.36517" fill="#428FC6"/>
<circle cx="143.337" cy="127.422" r="4.36517" fill="#428FC6"/>
<circle cx="143.337" cy="312.007" r="4.36517" fill="#428FC6"/>
<circle cx="143.337" cy="173.568" r="4.36517" fill="#428FC6"/>
<circle cx="143.337" cy="358.152" r="4.36517" fill="#428FC6"/>
<circle cx="235.629" cy="4.36517" r="4.36517" fill="#428FC6"/>
<circle cx="235.629" cy="188.95" r="4.36517" fill="#428FC6"/>
<circle cx="235.629" cy="50.5117" r="4.36517" fill="#428FC6"/>
<circle cx="235.629" cy="235.096" r="4.36517" fill="#428FC6"/>
<circle cx="235.629" cy="19.7475" r="4.36517" fill="#428FC6"/>
<circle cx="235.629" cy="204.332" r="4.36517" fill="#428FC6"/>
<circle cx="235.629" cy="65.8935" r="4.36517" fill="#428FC6"/>
<circle cx="235.629" cy="250.478" r="4.36517" fill="#428FC6"/>
<circle cx="235.629" cy="35.1298" r="4.36517" fill="#428FC6"/>
<circle cx="235.629" cy="219.714" r="4.36517" fill="#428FC6"/>
<circle cx="235.629" cy="81.2753" r="4.36517" fill="#428FC6"/>
<circle cx="235.629" cy="265.86" r="4.36517" fill="#428FC6"/>
<circle cx="235.629" cy="96.6577" r="4.36517" fill="#428FC6"/>
<circle cx="235.629" cy="281.242" r="4.36517" fill="#428FC6"/>
<circle cx="235.629" cy="142.804" r="4.36517" fill="#428FC6"/>
<circle cx="235.629" cy="327.388" r="4.36517" fill="#428FC6"/>
<circle cx="235.629" cy="112.04" r="4.36517" fill="#428FC6"/>
<circle cx="235.629" cy="296.624" r="4.36517" fill="#428FC6"/>
<circle cx="235.629" cy="158.185" r="4.36517" fill="#428FC6"/>
<circle cx="235.629" cy="342.77" r="4.36517" fill="#428FC6"/>
<circle cx="235.629" cy="127.422" r="4.36517" fill="#428FC6"/>
<circle cx="235.629" cy="312.007" r="4.36517" fill="#428FC6"/>
<circle cx="235.629" cy="173.568" r="4.36517" fill="#428FC6"/>
<circle cx="235.629" cy="358.152" r="4.36517" fill="#428FC6"/>
<circle cx="266.393" cy="4.36517" r="4.36517" fill="#428FC6"/>
<circle cx="266.393" cy="188.95" r="4.36517" fill="#428FC6"/>
<circle cx="266.393" cy="50.5117" r="4.36517" fill="#428FC6"/>
<circle cx="266.393" cy="235.096" r="4.36517" fill="#428FC6"/>
<circle cx="266.393" cy="19.7475" r="4.36517" fill="#428FC6"/>
<circle cx="266.393" cy="204.332" r="4.36517" fill="#428FC6"/>
<circle cx="266.393" cy="65.8935" r="4.36517" fill="#428FC6"/>
<circle cx="266.393" cy="250.478" r="4.36517" fill="#428FC6"/>
<circle cx="266.393" cy="35.1298" r="4.36517" fill="#428FC6"/>
<circle cx="266.393" cy="219.714" r="4.36517" fill="#428FC6"/>
<circle cx="266.393" cy="81.2753" r="4.36517" fill="#428FC6"/>
<circle cx="266.393" cy="265.86" r="4.36517" fill="#428FC6"/>
<circle cx="266.393" cy="96.6577" r="4.36517" fill="#428FC6"/>
<circle cx="266.393" cy="281.242" r="4.36517" fill="#428FC6"/>
<circle cx="266.393" cy="142.804" r="4.36517" fill="#428FC6"/>
<circle cx="266.393" cy="327.388" r="4.36517" fill="#428FC6"/>
<circle cx="266.393" cy="112.04" r="4.36517" fill="#428FC6"/>
<circle cx="266.393" cy="296.624" r="4.36517" fill="#428FC6"/>
<circle cx="266.393" cy="158.185" r="4.36517" fill="#428FC6"/>
<circle cx="266.393" cy="342.77" r="4.36517" fill="#428FC6"/>
<circle cx="266.393" cy="127.422" r="4.36517" fill="#428FC6"/>
<circle cx="266.393" cy="312.007" r="4.36517" fill="#428FC6"/>
<circle cx="266.393" cy="173.568" r="4.36517" fill="#428FC6"/>
<circle cx="266.393" cy="358.152" r="4.36517" fill="#428FC6"/>
<circle cx="297.157" cy="4.36517" r="4.36517" fill="#428FC6"/>
<circle cx="297.158" cy="188.95" r="4.36517" fill="#428FC6"/>
<circle cx="297.158" cy="50.5117" r="4.36517" fill="#428FC6"/>
<circle cx="297.158" cy="235.096" r="4.36517" fill="#428FC6"/>
<circle cx="297.158" cy="19.7475" r="4.36517" fill="#428FC6"/>
<circle cx="297.158" cy="204.332" r="4.36517" fill="#428FC6"/>
<circle cx="297.158" cy="65.8935" r="4.36517" fill="#428FC6"/>
<circle cx="297.158" cy="250.478" r="4.36517" fill="#428FC6"/>
<circle cx="297.158" cy="35.1298" r="4.36517" fill="#428FC6"/>
<circle cx="297.158" cy="219.714" r="4.36517" fill="#428FC6"/>
<circle cx="297.158" cy="81.2753" r="4.36517" fill="#428FC6"/>
<circle cx="297.158" cy="265.86" r="4.36517" fill="#428FC6"/>
<circle cx="297.158" cy="96.6577" r="4.36517" fill="#428FC6"/>
<circle cx="297.158" cy="281.242" r="4.36517" fill="#428FC6"/>
<circle cx="297.158" cy="142.804" r="4.36517" fill="#428FC6"/>
<circle cx="297.158" cy="327.388" r="4.36517" fill="#428FC6"/>
<circle cx="297.158" cy="112.04" r="4.36517" fill="#428FC6"/>
<circle cx="297.158" cy="296.624" r="4.36517" fill="#428FC6"/>
<circle cx="297.158" cy="158.185" r="4.36517" fill="#428FC6"/>
<circle cx="297.158" cy="342.77" r="4.36517" fill="#428FC6"/>
<circle cx="297.158" cy="127.422" r="4.36517" fill="#428FC6"/>
<circle cx="297.158" cy="312.006" r="4.36517" fill="#428FC6"/>
<circle cx="297.158" cy="173.568" r="4.36517" fill="#428FC6"/>
<circle cx="297.158" cy="358.152" r="4.36517" fill="#428FC6"/>
</mask>
<g mask="url(#mask0_181_549)">
<circle cx="147.702" cy="183.753" r="140.933" fill="#428FC6"/>
</g>
<circle cx="577.533" cy="283" r="242" fill="#F3493E"/>
</svg>
