<svg width="50" height="50" viewBox="0 0 50 50" fill="none" xmlns="http://www.w3.org/2000/svg">
<path d="M40.2528 11.5879C39.9364 11.4244 39.6284 11.2451 39.3299 11.0508C38.462 10.477 37.6663 9.80093 36.9598 9.03711C35.1923 7.01465 34.5321 4.96289 34.2889 3.52637H34.2987C34.0956 2.33398 34.1796 1.5625 34.1923 1.5625H26.1415V32.6934C26.1415 33.1113 26.1415 33.5244 26.1239 33.9326C26.1239 33.9834 26.119 34.0303 26.1161 34.085C26.1161 34.1074 26.1161 34.1309 26.1112 34.1543V34.1719C26.0263 35.2888 25.6683 36.3678 25.0685 37.314C24.4688 38.2601 23.6457 39.0443 22.6717 39.5977C21.6567 40.1752 20.5086 40.4781 19.3407 40.4766C15.5897 40.4766 12.5497 37.418 12.5497 33.6406C12.5497 29.8633 15.5897 26.8047 19.3407 26.8047C20.0507 26.804 20.7564 26.9158 21.4315 27.1357L21.4413 18.9385C19.3918 18.6737 17.3098 18.8366 15.3264 19.4168C13.3431 19.997 11.5015 20.982 9.91783 22.3096C8.5302 23.5152 7.36362 24.9538 6.47057 26.5605C6.13072 27.1465 4.8485 29.501 4.69322 33.3223C4.59557 35.4912 5.24694 37.7383 5.55748 38.667V38.6865C5.75279 39.2334 6.50963 41.0996 7.74303 42.6729C8.7376 43.9348 9.91265 45.0434 11.2303 45.9629V45.9434L11.2499 45.9629C15.1473 48.6113 19.4686 48.4375 19.4686 48.4375C20.2167 48.4072 22.7225 48.4375 25.5682 47.0889C28.7245 45.5938 30.5214 43.3662 30.5214 43.3662C31.6693 42.0352 32.5821 40.5184 33.2206 38.8809C33.9491 36.9658 34.1923 34.6689 34.1923 33.751V17.2354C34.2899 17.2939 35.5907 18.1543 35.5907 18.1543C35.5907 18.1543 37.4647 19.3555 40.3885 20.1377C42.4862 20.6943 45.3124 20.8115 45.3124 20.8115V12.8193C44.3221 12.9268 42.3114 12.6143 40.2528 11.5879Z" fill="#1776B9"/>
</svg>
