<svg width="52" height="52" viewBox="0 0 52 52" fill="none" xmlns="http://www.w3.org/2000/svg">
<path d="M51.2266 10.6971C49.4174 11.4987 47.4739 12.0404 45.4308 12.2852C47.5389 11.0238 49.1162 9.03842 49.8681 6.69958C47.8874 7.87606 45.7197 8.70417 43.4591 9.14791C41.9389 7.52479 39.9254 6.44895 37.7311 6.08744C35.5369 5.72593 33.2847 6.09896 31.3241 7.14863C29.3636 8.1983 27.8045 9.86587 26.8888 11.8924C25.9731 13.919 25.7521 16.1912 26.2601 18.3562C22.2468 18.1547 18.3206 17.1116 14.7365 15.2945C11.1524 13.4775 7.99043 10.9271 5.45577 7.80892C4.58911 9.30391 4.09077 11.0372 4.09077 12.8832C4.08981 14.5451 4.49904 16.1814 5.28218 17.6472C6.06531 19.1129 7.19812 20.3627 8.58011 21.2856C6.97737 21.2346 5.41 20.8015 4.00844 20.0224V20.1524C4.00828 22.4832 4.81451 24.7422 6.29034 26.5462C7.76616 28.3502 9.82068 29.5881 12.1053 30.0497C10.6185 30.4521 9.05967 30.5114 7.54661 30.2231C8.19118 32.2286 9.44676 33.9823 11.1376 35.2388C12.8284 36.4952 14.8698 37.1915 16.9759 37.2301C13.4006 40.0368 8.98503 41.5593 4.43961 41.5526C3.63443 41.5528 2.82994 41.5058 2.03027 41.4117C6.64414 44.3783 12.015 45.9527 17.5003 45.9466C36.0686 45.9466 46.2194 30.5676 46.2194 17.2296C46.2194 16.7962 46.2086 16.3586 46.1891 15.9252C48.1636 14.4974 49.8679 12.7292 51.2223 10.7036L51.2266 10.6971Z" fill="#1776B9"/>
</svg>
