<svg width="62" height="62" viewBox="0 0 62 62" fill="none" xmlns="http://www.w3.org/2000/svg">
<g clip-path="url(#clip0_81_310)">
<path d="M60.7082 16.81C60.3572 15.5577 59.6733 14.4239 58.7294 13.5292C57.7588 12.607 56.5692 11.9473 55.2729 11.6124C50.4214 10.3336 30.9844 10.3336 30.9844 10.3336C22.8813 10.2414 14.7802 10.6469 6.72688 11.5478C5.43054 11.9074 4.24317 12.5819 3.27039 13.5111C2.31455 14.4308 1.62222 15.5649 1.26055 16.8074C0.391759 21.4878 -0.0303602 26.2401 -0.000114595 31.0003C-0.0311146 35.7562 0.389969 40.5069 1.26055 45.1931C1.61447 46.4305 2.30422 47.5594 3.26263 48.4714C4.22105 49.3833 5.41455 50.042 6.72688 50.3908C11.643 51.667 30.9844 51.6669 30.9844 51.6669C39.0978 51.7593 47.2092 51.3538 55.2729 50.4528C56.5692 50.1179 57.7588 49.4582 58.7294 48.5359C59.6852 47.624 60.3646 46.4899 60.7056 45.2551C61.5971 40.5766 62.0306 35.8223 61.9999 31.0597C62.0669 26.2769 61.634 21.5002 60.7082 16.8074V16.81ZM24.805 39.8456V22.1575L40.9767 31.0029L24.805 39.8456Z" fill="#1776B9"/>
</g>
<defs>
<clipPath id="clip0_81_310">
<rect width="62" height="62" fill="white"/>
</clipPath>
</defs>
</svg>
